<svg width="792.2mm" height="110.9mm" version="1.1" viewBox="0 0 792.2 110.9" xmlns="http://www.w3.org/2000/svg" xmlns:xlink="http://www.w3.org/1999/xlink">
<defs>
<linearGradient id="linearGradient2311" x1="2000.1" x2="2000.1" y1="10860" y2="10429" gradientTransform="rotate(45 2000.1 10644)" gradientUnits="userSpaceOnUse">
<stop stop-color="#f7df1e" offset=".52655"/>
<stop stop-color="#fabb0d" offset=".83789"/>
<stop stop-color="#ffa800" offset="1"/>
</linearGradient>
</defs>
<g transform="matrix(6.0287 0 0 6.0287 -292.84 -767.11)" stroke-dashoffset="60.8" stroke-linecap="square" stroke-width=".17554" aria-label="Photon">
<path d="m87.421 129.38q1.2051 0 2.0743 0.33584 0.889 0.31609 1.4619 0.889 0.57291 0.55316 0.84949 1.3039t0.27658 1.62-0.27658 1.6397q-0.25682 0.75071-0.82974 1.3236-0.57291 0.55316-1.4619 0.889-0.86925 0.31609-2.0941 0.31609h-6.8354v5.4723h-4.3067v-13.789zm-0.65194 5.4525q0.41487 0 0.65194-0.15804 0.23707-0.1778 0.3556-0.39512 0.11853-0.21731 0.13829-0.43462 0.01975-0.21731 0.01975-0.31609 0-0.0988-0.01975-0.29633-0.01976-0.21731-0.13829-0.43463-0.11853-0.21731-0.3556-0.37535-0.23707-0.1778-0.65194-0.1778h-6.1835v2.588z"/>
<path d="m104.63 132.44q1.1656 0 2.0743 0.39512 0.90876 0.37535 1.5212 1.0866 0.63218 0.7112 0.96803 1.699 0.33584 0.96803 0.33584 2.1534v5.3933h-4.3067v-5.3933q0-0.45438-0.11853-0.88901-0.0988-0.45438-0.41487-0.80998-0.29633-0.37535-0.84949-0.59266-0.5334-0.23707-1.3829-0.23707l-4.3857 0.0395v7.8825h-4.3067v-13.789h4.3067v3.0621z"/>
<path d="m121.2 132.24q1.2644 0 2.3707 0.37535 1.1261 0.37536 1.9558 1.0273 0.82973 0.65194 1.3039 1.5409 0.49389 0.86925 0.49389 1.8768v1.4619q0 0.98778-0.49389 1.8768-0.47414 0.86925-1.3039 1.5212-0.82974 0.65194-1.9558 1.0273-1.1063 0.37536-2.3707 0.37536h-3.8326q-1.2644 0-2.3904-0.37536-1.1063-0.37535-1.936-1.0273-0.82974-0.65193-1.3236-1.5212-0.47413-0.889-0.47413-1.8768v-1.4619q0-1.0075 0.47413-1.8768 0.49389-0.889 1.3236-1.5409 0.82973-0.65193 1.936-1.0273 1.1261-0.37535 2.3904-0.37535zm1.7187 4.8204q0-0.92851-0.29634-1.4224-0.29633-0.49389-0.73095-0.7112-0.41487-0.23707-0.90876-0.27658-0.47414-0.0395-0.82974-0.0395h-1.7582q-0.35561 0-0.82974 0.0395t-0.90876 0.27658q-0.41487 0.21731-0.7112 0.7112t-0.29633 1.4224v1.4619q0 0.90876 0.29633 1.4026t0.7112 0.73095q0.43463 0.21731 0.90876 0.25683 0.47413 0.0395 0.82974 0.0395h1.7582q0.3556 0 0.82974-0.0395 0.49389-0.0395 0.90876-0.25683 0.43462-0.23706 0.73095-0.73095 0.29634-0.49389 0.29634-1.4026z"/>
<path d="m134.14 135.09v0.67169q0 0.86925 0.0197 1.4224 0.0395 0.5334 0.079 0.86924 0.0198 0.39512 0.079 0.59267 0.1778 0.61243 0.51364 0.96803 0.33585 0.33584 0.7112 0.49389 0.39512 0.13829 0.77047 0.1778 0.37536 0.0198 0.67169 0.0198h0.67169q0.23707 0 0.61243 0 0.39511-0.0198 0.75071-0.0988t0.61242-0.27657q0.27658-0.19756 0.27658-0.57292h4.7809q0 2.1731-1.5409 3.0819-1.5212 0.889-4.4648 0.889h-2.7263q-1.6792 0-2.8448-0.37536-1.1458-0.39511-1.857-1.1261-0.7112-0.73095-1.0273-1.7582-0.31609-1.0273-0.31609-2.3312 0-0.11853 0-0.86924 0-0.75072-0.0198-1.778h-1.3434v-2.8646h1.3039v-2.0151q-0.0198-0.45438-0.0198-0.82973h4.3067v2.8448h10.549v2.8646z"/>
<path d="m156.17 132.24q1.2644 0 2.3707 0.37535 1.1261 0.37536 1.9558 1.0273 0.82974 0.65194 1.3039 1.5409 0.49389 0.86925 0.49389 1.8768v1.4619q0 0.98778-0.49389 1.8768-0.47413 0.86925-1.3039 1.5212-0.82973 0.65194-1.9558 1.0273-1.1063 0.37536-2.3707 0.37536h-3.8326q-1.2644 0-2.3904-0.37536-1.1063-0.37535-1.936-1.0273-0.82973-0.65193-1.3236-1.5212-0.47414-0.889-0.47414-1.8768v-1.4619q0-1.0075 0.47414-1.8768 0.49389-0.889 1.3236-1.5409 0.82974-0.65193 1.936-1.0273 1.1261-0.37535 2.3904-0.37535zm1.7187 4.8204q0-0.92851-0.29633-1.4224-0.29634-0.49389-0.73096-0.7112-0.41487-0.23707-0.90876-0.27658-0.47413-0.0395-0.82973-0.0395h-1.7582q-0.3556 0-0.82974 0.0395-0.47413 0.0395-0.90875 0.27658-0.41487 0.21731-0.7112 0.7112-0.29634 0.49389-0.29634 1.4224v1.4619q0 0.90876 0.29634 1.4026 0.29633 0.49389 0.7112 0.73095 0.43462 0.21731 0.90875 0.25683 0.47414 0.0395 0.82974 0.0395h1.7582q0.3556 0 0.82973-0.0395 0.49389-0.0395 0.90876-0.25683 0.43462-0.23706 0.73096-0.73095 0.29633-0.49389 0.29633-1.4026z"/>
<path d="m175.08 132.44q1.1656 0 2.0743 0.39512 0.90876 0.37535 1.5212 1.0866 0.63218 0.7112 0.96803 1.699 0.33584 0.96803 0.33584 2.1534v5.3933h-4.3067v-5.3933q0-0.45438-0.11853-0.88901-0.0988-0.45438-0.41487-0.80998-0.29633-0.37535-0.84949-0.59266-0.5334-0.23707-1.3829-0.23707l-4.3857 0.0395v7.8825h-4.3067v-10.727z"/>
</g>
<g transform="matrix(.26458 0 0 .26458 -474.99 -2759.6)">
<path d="m1853.2 10492a211.75 211.75 0 0 1 299.46 299.46z" fill="url(#linearGradient2311)"/>
<g fill="#f6e71c" stroke-dashoffset="60.8" stroke-linecap="square">
<rect transform="rotate(-45)" x="-6288.2" y="8831.8" width="30" height="218.23" ry=".28316" stroke-width="20" style="paint-order:markers fill stroke"/>
<rect transform="rotate(-45)" x="-6228.2" y="8766.8" width="30" height="348.25" ry=".45187" stroke-width="20" style="paint-order:markers fill stroke"/>
<rect transform="rotate(-45)" x="-6168.3" y="8737.7" width="30" height="406.49" ry=".52745" stroke-width="20" style="paint-order:markers fill stroke"/>
</g>
</g>
</svg>
